<svg width="57" height="43" viewBox="0 0 57 43" fill="none" xmlns="http://www.w3.org/2000/svg">
<rect x="1.92578" y="1.67188" width="53.5542" height="39.5" fill="white" stroke="#EC8C2F" stroke-width="2"/>
<path d="M42.8568 34.9894C42.8568 35.4739 42.3607 35.8887 41.7487 35.9159C41.1367 35.9431 40.6406 35.5724 40.6406 35.0879L42.8568 34.9894ZM41.7486 17.0079L41.8229 16.1292L42.8567 16.1383L42.8567 16.9586L41.7486 17.0079ZM6.72409 17.3225C6.32133 16.9756 6.36838 16.4193 6.82917 16.0799L14.3383 10.5502C14.7991 10.2109 15.4991 10.217 15.9019 10.5639C16.3046 10.9108 16.2576 11.4671 15.7968 11.8065L9.12205 16.7218L14.9562 21.7468C15.3589 22.0937 15.3119 22.65 14.8511 22.9893C14.3903 23.3286 13.6902 23.3225 13.2875 22.9756L6.72409 17.3225ZM40.6406 35.0879L40.6405 17.0571L42.8567 16.9586L42.8568 34.9894L40.6406 35.0879ZM41.6743 17.8865L7.48414 17.5867L7.63274 15.8295L41.8229 16.1292L41.6743 17.8865Z" fill="#EC8C2F"/>
</svg>
