<svg width="1209" height="693" viewBox="0 0 1209 693" fill="none" xmlns="http://www.w3.org/2000/svg">
<line x1="1.46973" y1="691.205" x2="1.46973" y2="0.797791" stroke="#EB9B4E"/>
<line x1="12.7734" y1="691.205" x2="12.7734" y2="0.797791" stroke="#EB9B4E"/>
<line x1="1207.5" y1="692" x2="1207.5" y2="0.796875" stroke="#EB9B4E"/>
<line x1="1196.2" y1="692" x2="1196.2" y2="0.796875" stroke="#EB9B4E"/>
<line x1="365.8" y1="692" x2="365.8" y2="6.10352e-05" stroke="#EB9B4E"/>
<line x1="376.233" y1="692" x2="376.233" y2="6.10352e-05" stroke="#EB9B4E"/>
<line x1="355.365" y1="692" x2="355.365" y2="6.10352e-05" stroke="#EB9B4E"/>
<line x1="749.259" y1="691.204" x2="749.259" y2="0.796692" stroke="#EB9B4E"/>
<line x1="761.433" y1="691.204" x2="761.433" y2="0.796692" stroke="#EB9B4E"/>
<line x1="737.955" y1="691.204" x2="737.955" y2="0.796692" stroke="#EB9B4E"/>
<rect x="749.76" y="691.203" width="690.407" height="11.3038" transform="rotate(-90 749.76 691.203)" fill="url(#paint0_linear_88_186)"/>
<line x1="75.8789" y1="342.713" x2="549.033" y2="342.713" stroke="#EB9B4E"/>
<line x1="75.8789" y1="362.621" x2="549.769" y2="362.621" stroke="#EB9B4E"/>
<line x1="75.8789" y1="322.805" x2="549.033" y2="322.805" stroke="#EB9B4E"/>
<line x1="548.309" y1="342.713" x2="1087.58" y2="342.713" stroke="#EB9B4E"/>
<line x1="549.255" y1="362.621" x2="1088.53" y2="362.621" stroke="#EB9B4E"/>
<line x1="548.309" y1="322.805" x2="1087.58" y2="322.805" stroke="#EB9B4E"/>
<line x1="1.96875" y1="468.532" x2="559.79" y2="468.532" stroke="#EB9B4E"/>
<path d="M1.96875 488.542H559.79" stroke="#EB9B4E"/>
<line x1="1.96875" y1="448.624" x2="559.79" y2="448.624" stroke="#EB9B4E"/>
<line x1="559.334" y1="468.532" x2="1195.83" y2="468.532" stroke="#EB9B4E"/>
<line x1="560.052" y1="488.44" x2="1195.82" y2="488.44" stroke="#EB9B4E"/>
<line x1="559.334" y1="448.624" x2="1195.83" y2="448.624" stroke="#EB9B4E"/>
<rect x="112.903" y="469.032" width="302.481" height="19.1116" fill="url(#paint1_linear_88_186)"/>
<rect x="840.189" y="188.727" width="366.939" height="19.9079" fill="url(#paint2_linear_88_186)"/>
<line x1="13.2715" y1="208.278" x2="1208" y2="208.278" stroke="#EB9B4E"/>
<line x1="13.2715" y1="228.703" x2="1208" y2="228.703" stroke="#EB9B4E"/>
<line x1="13.2715" y1="188.27" x2="1207.13" y2="188.27" stroke="#EB9B4E"/>
<line x1="1035.77" y1="691.241" x2="1035.77" y2="188.728" stroke="#EB9B4E"/>
<line x1="1057.94" y1="691.241" x2="1057.94" y2="188.728" stroke="#EB9B4E"/>
<line x1="1013.59" y1="691.241" x2="1013.59" y2="188.728" stroke="#EB9B4E"/>
<line x1="134.943" y1="516.015" x2="134.943" y2="0.797363" stroke="#EB9B4E"/>
<line x1="157.114" y1="516.015" x2="157.114" y2="0.797363" stroke="#EB9B4E"/>
<line x1="112.769" y1="516.015" x2="112.769" y2="0.797363" stroke="#EB9B4E"/>
<line x1="861.864" y1="524.774" x2="861.864" y2="187.932" stroke="#EB9B4E"/>
<line x1="884.035" y1="524.774" x2="884.035" y2="187.932" stroke="#EB9B4E"/>
<line x1="839.689" y1="524.774" x2="839.689" y2="187.932" stroke="#EB9B4E"/>
<line y1="-0.5" x2="567.86" y2="-0.5" transform="matrix(1 2.89523e-06 -0.000161428 -1 1 691.005)" stroke="#EB9B4E"/>
<line y1="-0.5" x2="638.2" y2="-0.5" transform="matrix(1 2.98398e-06 -0.000138794 -1 568.83 690.998)" stroke="#EB9B4E"/>
<line y1="-0.5" x2="568.317" y2="-0.5" transform="matrix(1 0 -0.00210049 -0.999998 1 0.0839844)" stroke="#EB9B4E"/>
<line y1="-0.5" x2="638.714" y2="-0.5" transform="matrix(1 0 -0.00186699 -0.999998 569.286 0.393555)" stroke="#EB9B4E"/>
<defs>
<linearGradient id="paint0_linear_88_186" x1="856.143" y1="701.942" x2="1372.74" y2="710.28" gradientUnits="userSpaceOnUse">
<stop stop-color="#EB9B4E"/>
<stop offset="1" stop-color="#0D8FDF"/>
</linearGradient>
<linearGradient id="paint1_linear_88_186" x1="159.512" y1="487.188" x2="385.897" y2="488.135" gradientUnits="userSpaceOnUse">
<stop stop-color="#EB9B4E"/>
<stop offset="1" stop-color="#0D8FDF"/>
</linearGradient>
<linearGradient id="paint2_linear_88_186" x1="896.73" y1="207.64" x2="1171.36" y2="208.977" gradientUnits="userSpaceOnUse">
<stop stop-color="#EB9B4E"/>
<stop offset="1" stop-color="#0D8FDF"/>
</linearGradient>
</defs>
</svg>
