<svg width="1255" height="675" viewBox="0 0 1255 675" fill="none" xmlns="http://www.w3.org/2000/svg">
<line x1="37.4463" y1="674.025" x2="37.4463" y2="0.777893" stroke="#EB9B4E"/>
<line x1="48.4688" y1="674.025" x2="48.4688" y2="0.777893" stroke="#EB9B4E"/>
<line x1="1213.5" y1="674.801" x2="1213.5" y2="0.777222" stroke="#EB9B4E"/>
<line x1="1202.48" y1="674.801" x2="1202.48" y2="0.777222" stroke="#EB9B4E"/>
<line x1="37.9463" y1="531.874" x2="581.903" y2="531.874" stroke="#EB9B4E"/>
<path d="M37.9463 551.399H581.903" stroke="#EB9B4E"/>
<line x1="37.9463" y1="512.461" x2="581.903" y2="512.461" stroke="#EB9B4E"/>
<line x1="581.458" y1="531.874" x2="1202.13" y2="531.874" stroke="#EB9B4E"/>
<line x1="582.158" y1="551.287" x2="1202.13" y2="551.287" stroke="#EB9B4E"/>
<line x1="581.458" y1="512.461" x2="1202.13" y2="512.461" stroke="#EB9B4E"/>
<rect x="146.124" y="532.374" width="294.963" height="18.6366" fill="url(#paint0_linear_94_94)"/>
<line x1="1040.12" y1="551.023" x2="1040.12" y2="61.0001" stroke="#EB9B4E"/>
<line x1="1061.74" y1="551.023" x2="1061.74" y2="61.0001" stroke="#EB9B4E"/>
<line x1="1018.5" y1="551.023" x2="1018.5" y2="61.0001" stroke="#EB9B4E"/>
<line x1="638" y1="102.125" x2="1072.02" y2="102.125" stroke="#EB9B4E"/>
<line x1="638" y1="123.743" x2="1072.02" y2="123.743" stroke="#EB9B4E"/>
<line x1="638" y1="80.5" x2="1072.02" y2="80.5" stroke="#EB9B4E"/>
<line x1="49" y1="342.125" x2="370" y2="342.125" stroke="#EB9B4E"/>
<line x1="49" y1="363.743" x2="370" y2="363.743" stroke="#EB9B4E"/>
<line x1="49" y1="320.5" x2="370" y2="320.5" stroke="#EB9B4E"/>
<line x1="294" y1="219.125" x2="728.023" y2="219.125" stroke="#EB9B4E"/>
<line x1="294" y1="240.743" x2="728.023" y2="240.743" stroke="#EB9B4E"/>
<line x1="294" y1="197.5" x2="728.023" y2="197.5" stroke="#EB9B4E"/>
<line x1="121.125" y1="384" x2="121.125" y2="1.00006" stroke="#EB9B4E"/>
<line x1="142.743" y1="384" x2="142.743" y2="1.00006" stroke="#EB9B4E"/>
<line x1="99.5" y1="384" x2="99.5" y2="1.00006" stroke="#EB9B4E"/>
<line x1="689.125" y1="257" x2="689.125" y2="61.0001" stroke="#EB9B4E"/>
<line x1="710.743" y1="257" x2="710.743" y2="61.0001" stroke="#EB9B4E"/>
<line x1="667.5" y1="257" x2="667.5" y2="61.0001" stroke="#EB9B4E"/>
<line x1="333.125" y1="384" x2="333.125" y2="188" stroke="#EB9B4E"/>
<line x1="354.743" y1="384" x2="354.743" y2="188" stroke="#EB9B4E"/>
<line x1="311.5" y1="384" x2="311.5" y2="188" stroke="#EB9B4E"/>
<line y1="-0.5" x2="553.745" y2="-0.5" transform="matrix(1 2.89523e-06 -0.000161428 -1 37 673.83)" stroke="#EB9B4E"/>
<line y1="-0.5" x2="622.337" y2="-0.5" transform="matrix(1 2.98398e-06 -0.000138794 -1 590.716 673.823)" stroke="#EB9B4E"/>
<line y1="-0.5" x2="554.191" y2="-0.5" transform="matrix(1 0 -0.00210049 -0.999998 37 0.0817871)" stroke="#EB9B4E"/>
<line y1="-0.5" x2="622.838" y2="-0.5" transform="matrix(1 0 -0.00186699 -0.999998 591.161 0.383789)" stroke="#EB9B4E"/>
<line x1="19.9131" x2="19.9131" y2="315.389" stroke="#EB9B4E"/>
<line x1="0.5" x2="0.5" y2="315.88" stroke="#EB9B4E"/>
<line x1="39.3262" x2="39.3262" y2="315.389" stroke="#EB9B4E"/>
<line x1="19.9131" y1="314.906" x2="19.9131" y2="674.369" stroke="#EB9B4E"/>
<line x1="0.5" y1="315.537" x2="0.5" y2="675" stroke="#EB9B4E"/>
<line x1="39.3262" y1="314.906" x2="39.3262" y2="674.369" stroke="#EB9B4E"/>
<rect x="1253.47" y="467.503" width="207.007" height="19.4131" transform="rotate(90 1253.47 467.503)" fill="url(#paint1_linear_94_94)"/>
<line x1="1234.42" y1="1" x2="1234.42" y2="675" stroke="#EB9B4E"/>
<line x1="1214.5" y1="1" x2="1214.5" y2="675" stroke="#EB9B4E"/>
<line x1="1253.93" y1="1" x2="1253.93" y2="674.509" stroke="#EB9B4E"/>
<defs>
<linearGradient id="paint0_linear_94_94" x1="191.574" y1="550.079" x2="412.333" y2="551.002" gradientUnits="userSpaceOnUse">
<stop stop-color="#EB9B4E"/>
<stop offset="1" stop-color="#0D8FDF"/>
</linearGradient>
<linearGradient id="paint1_linear_94_94" x1="1285.37" y1="485.946" x2="1440.3" y2="486.382" gradientUnits="userSpaceOnUse">
<stop stop-color="#EB9B4E"/>
<stop offset="1" stop-color="#0D8FDF"/>
</linearGradient>
</defs>
</svg>
