<svg width="1210" height="666" viewBox="0 0 1210 666" fill="none" xmlns="http://www.w3.org/2000/svg">
<line x1="3.00007" y1="574.5" x2="1210" y2="574.664" stroke="#EB9B4E"/>
<line x1="3" y1="118.332" x2="1210" y2="118.332" stroke="#EB9B4E"/>
<line x1="3" y1="598.5" x2="1210" y2="598.5" stroke="#EB9B4E"/>
<line x1="103.445" y1="664" x2="103.445" y2="1" stroke="#EB9B4E"/>
<line x1="1097.56" y1="664" x2="1097.56" y2="1.94531" stroke="#EB9B4E"/>
<line x1="326.469" y1="663" x2="326.469" y2="118.664" stroke="#EB9B4E"/>
<line x1="987.5" y1="665.055" x2="987.5" y2="3" stroke="#EB9B4E"/>
<line x1="986.999" y1="362.887" x2="1210" y2="362.887" stroke="#EB9B4E"/>
<rect x="1098" y="118" width="111" height="245" fill="url(#paint0_linear_90_202)"/>
<rect x="104" y="364" width="222" height="210" fill="url(#paint1_linear_90_202)"/>
<rect x="988" y="575" width="221" height="23" fill="url(#paint2_linear_90_202)"/>
<line x1="1207.53" y1="663" x2="1207.5" y2="1.00002" stroke="#EB9B4E"/>
<line x1="0.750977" y1="663" x2="0.750977" y2="-0.000183105" stroke="#EB9B4E"/>
<line y1="-0.5" x2="568.39" y2="-0.5" transform="matrix(1 2.89523e-06 -5.91673e-06 1 0.875 663)" stroke="#EB9B4E"/>
<line y1="-0.5" x2="638.795" y2="-0.5" transform="matrix(1 -1.92714e-06 -5.5027e-06 1 568.404 663.001)" stroke="#EB9B4E"/>
<line y1="-0.5" x2="568.708" y2="-0.5" transform="matrix(1 2.89523e-06 -4.42814e-06 1 1 1.00317)" stroke="#EB9B4E"/>
<line y1="-0.5" x2="639.153" y2="-0.5" transform="matrix(1 -6.61893e-06 -4.21699e-06 1 568.848 1.00391)" stroke="#EB9B4E"/>
<defs>
<linearGradient id="paint0_linear_90_202" x1="1153.5" y1="118" x2="1153.5" y2="363" gradientUnits="userSpaceOnUse">
<stop stop-color="#EB9B4E"/>
<stop offset="1" stop-color="#0D8FDF"/>
</linearGradient>
<linearGradient id="paint1_linear_90_202" x1="215" y1="364" x2="215" y2="574" gradientUnits="userSpaceOnUse">
<stop stop-color="#EB9B4E"/>
<stop offset="1" stop-color="#0D8FDF"/>
</linearGradient>
<linearGradient id="paint2_linear_90_202" x1="998.833" y1="598" x2="1200.33" y2="598" gradientUnits="userSpaceOnUse">
<stop stop-color="#EB9B4E"/>
<stop offset="1" stop-color="#0D8FDF"/>
</linearGradient>
</defs>
</svg>
