<svg width="89" height="88" viewBox="0 0 89 88" fill="none" xmlns="http://www.w3.org/2000/svg">
<rect x="9.4209" y="7.75269" width="69.9355" height="67.9003" fill="white" stroke="#EC8C2F" stroke-width="2"/>
<path d="M44.882 15.8155L51.0106 34.6885L51.235 35.3797H51.9617H71.7959L55.7492 47.0452L55.1618 47.4723L55.3861 48.1629L61.5151 67.0372L45.47 55.3729L44.882 54.9454L44.294 55.3729L28.249 67.0372L34.378 48.1629L34.6022 47.4723L34.0149 47.0452L17.9682 35.3797H37.8023H38.529L38.7534 34.6885L44.882 15.8155Z" fill="white" stroke="#EC8C2F" stroke-width="2"/>
<path d="M28.0749 20.6448L44.1305 32.6081L44.7145 33.0433L45.3123 32.6324L61.8105 21.2935L55.2299 40.0157L54.9896 40.6994L55.577 41.1371L71.6238 53.0938L51.4993 52.7129L50.7718 52.6992L50.5337 53.3765L43.9472 72.1153L38.0986 53.1496L37.8845 52.4553L37.1503 52.4414L17.0435 52.0609L33.5417 40.7221L34.1395 40.3112L33.9267 39.6209L28.0749 20.6448Z" fill="white" stroke="#EC8C2F" stroke-width="2"/>
</svg>
