<svg width="415" height="66" viewBox="0 0 415 66" fill="none" xmlns="http://www.w3.org/2000/svg">
<path d="M7.288 0.631998C9.528 0.674665 11.256 1.19733 12.472 2.2C13.7093 3.18133 14.328 4.49333 14.328 6.136C14.328 7.30933 14.0507 8.29067 13.496 9.08C12.9413 9.848 12.2907 10.424 11.544 10.808C13.016 11.2133 14.168 11.96 15 13.048C15.832 14.136 16.248 15.416 16.248 16.888C16.248 18.7653 15.5973 20.2587 14.296 21.368C12.9947 22.4773 11.128 23.032 8.696 23.032H0.792V22.2H1.464C1.95467 22.2 2.36 22.04 2.68 21.72C3 21.3787 3.18133 20.9733 3.224 20.504V3.128C3.224 2.65867 3.05333 2.264 2.712 1.944C2.37067 1.60267 1.95467 1.432 1.464 1.432H0.824V0.599998L7.288 0.631998ZM8.6 21.432C10.0933 21.3893 11.2667 20.9627 12.12 20.152C12.9733 19.3413 13.4 18.2 13.4 16.728C13.4 15.6187 13.176 14.7227 12.728 14.04C12.3013 13.336 11.7467 12.8027 11.064 12.44C10.3813 12.0773 9.624 11.832 8.792 11.704C8.024 11.5973 7.02133 11.5333 5.784 11.512V21.4L8.6 21.432ZM7.992 10.584C8.58933 10.4773 9.144 10.2747 9.656 9.976C10.168 9.656 10.5947 9.21867 10.936 8.664C11.2987 8.088 11.48 7.32 11.48 6.36C11.48 5.03733 11.1173 4.01333 10.392 3.288C9.66667 2.56267 8.6 2.2 7.192 2.2H5.784V10.712C6.72267 10.712 7.45867 10.6693 7.992 10.584ZM19.03 23.032V22.168H19.734C20.1607 22.168 20.5233 22.04 20.822 21.784C21.1207 21.5067 21.2807 21.176 21.302 20.792V6.072C21.2807 5.66667 21.1313 5.32533 20.854 5.048C20.5767 4.77067 20.2247 4.632 19.798 4.632H19.094V3.8H26.102V4.632H25.398C24.9713 4.632 24.6087 4.77067 24.31 5.048C24.0327 5.32533 23.8833 5.66667 23.862 6.072V21.528H26.614C28.0647 21.528 29.1953 21.1867 30.006 20.504C30.838 19.8213 31.254 18.8933 31.254 17.72C31.254 17.464 31.2327 17.1867 31.19 16.888C31.1687 16.5893 31.126 16.3333 31.062 16.12C30.8273 15.4587 30.518 14.9253 30.134 14.52C29.7713 14.0933 29.3767 13.7733 28.95 13.56C28.5233 13.3253 28.086 13.176 27.638 13.112C27.2113 13.0267 26.806 12.984 26.422 12.984C26.1873 12.984 25.9527 12.9947 25.718 13.016C25.5047 13.0373 25.3127 13.0693 25.142 13.112C24.9287 13.1547 24.726 13.1973 24.534 13.24V12.76C25.1527 12.4613 25.7607 12.216 26.358 12.024C26.9553 11.832 27.5313 11.736 28.086 11.736C28.8967 11.736 29.654 11.8747 30.358 12.152C31.0833 12.408 31.7127 12.76 32.246 13.208C32.8007 13.6347 33.238 14.2107 33.558 14.936C33.878 15.6613 34.038 16.4827 34.038 17.4C34.038 18.2533 33.8567 19.0213 33.494 19.704C33.1527 20.3867 32.6513 20.9733 31.99 21.464C31.35 21.9333 30.5713 22.3067 29.654 22.584C28.758 22.84 27.766 22.9787 26.678 23L19.03 23.032ZM33.782 23.032V22.2H34.454C34.9447 22.2 35.3607 22.0613 35.702 21.784C36.0647 21.5067 36.2673 21.176 36.31 20.792V6.104C36.2673 5.72 36.0647 5.38933 35.702 5.112C35.3607 4.83467 34.9447 4.696 34.454 4.696H33.782V3.832H41.366V4.696H40.694C40.2247 4.696 39.8087 4.83467 39.446 5.112C39.1047 5.38933 38.9127 5.70933 38.87 6.072V20.792C38.8913 21.176 39.0727 21.5067 39.414 21.784C39.7767 22.0613 40.2033 22.2 40.694 22.2H41.366V23.032H33.782ZM57.7038 3.608V4.44H56.9038C56.5198 4.44 56.1891 4.568 55.9118 4.824C55.6344 5.08 55.4744 5.38933 55.4318 5.752V18.232L71.2398 3.352H72.0078C71.9438 3.77867 71.8798 4.216 71.8158 4.664C71.7731 5.048 71.7304 5.496 71.6878 6.008C71.6451 6.49867 71.6238 7 71.6238 7.512V20.824C71.6451 21.208 71.7944 21.5387 72.0718 21.816C72.3704 22.072 72.7118 22.2 73.0958 22.2H73.8958V23.032H67.4958V22.2H68.2958C68.6798 22.2 69.0104 22.072 69.2878 21.816C69.5651 21.5387 69.7251 21.208 69.7678 20.824V8.472L53.9278 23.48H53.2238C53.2878 23.032 53.3411 22.5733 53.3838 22.104C53.4264 21.6987 53.4584 21.2507 53.4798 20.76C53.5224 20.248 53.5438 19.7467 53.5438 19.256V5.816C53.5011 5.45333 53.3411 5.144 53.0638 4.888C52.7864 4.632 52.4451 4.504 52.0398 4.504H51.2718V3.672L57.7038 3.608ZM89.7498 8.888C89.5364 8.376 89.2911 7.91733 89.0138 7.512C88.7578 7.08533 88.4378 6.72267 88.0538 6.424C87.6911 6.104 87.2538 5.85867 86.7418 5.688C86.2511 5.496 85.6644 5.38933 84.9818 5.368H80.4058V20.792C80.4271 21.176 80.5871 21.5067 80.8858 21.784C81.2058 22.0613 81.5791 22.2 82.0058 22.2H82.6458V23.064H75.6698V22.2H76.3098C76.7364 22.2 77.0991 22.0613 77.3978 21.784C77.7178 21.5067 77.8884 21.176 77.9098 20.792V6.104C77.8884 5.69867 77.7391 5.35733 77.4618 5.08C77.1844 4.80267 76.8324 4.664 76.4058 4.664H75.7018V3.832H88.7898L90.6778 8.76L89.7498 8.888ZM100.428 3.832C101.516 3.85333 102.508 4.00267 103.404 4.28C104.321 4.536 105.1 4.90933 105.74 5.4C106.401 5.86933 106.903 6.44533 107.244 7.128C107.607 7.81067 107.788 8.57867 107.788 9.432C107.788 10.3493 107.628 11.1707 107.308 11.896C106.988 12.6213 106.551 13.208 105.996 13.656C105.463 14.0827 104.833 14.4347 104.108 14.712C103.404 14.968 102.647 15.096 101.836 15.096C101.281 15.096 100.705 15 100.108 14.808C99.5107 14.616 98.9027 14.3707 98.284 14.072V13.592C98.476 13.6347 98.6787 13.6773 98.892 13.72C99.0627 13.7627 99.2547 13.7947 99.468 13.816C99.7027 13.8373 99.9373 13.848 100.172 13.848C100.556 13.848 100.961 13.816 101.388 13.752C101.836 13.6667 102.273 13.5173 102.7 13.304C103.127 13.0693 103.521 12.7493 103.884 12.344C104.268 11.9173 104.577 11.3733 104.812 10.712C104.876 10.4987 104.919 10.2427 104.94 9.944C104.983 9.64533 105.004 9.368 105.004 9.112C105.004 7.93867 104.588 7.01067 103.756 6.328C102.945 5.64533 101.815 5.304 100.364 5.304H97.612V20.76C97.6333 21.1653 97.7827 21.5067 98.06 21.784C98.3587 22.0613 98.7213 22.2 99.148 22.2H99.852V23.032H92.844V22.2H93.548C93.9747 22.2 94.3267 22.0613 94.604 21.784C94.8813 21.5067 95.0307 21.1653 95.052 20.76V6.04C95.0307 5.656 94.8707 5.336 94.572 5.08C94.2733 4.80267 93.9107 4.664 93.484 4.664H92.78V3.8L100.428 3.832ZM127.684 20.504C127.961 21.1013 128.292 21.528 128.676 21.784C129.081 22.04 129.465 22.168 129.828 22.168H130.34V23H123.428V22.168H123.94C124.174 22.168 124.388 22.0827 124.58 21.912C124.793 21.7413 124.9 21.496 124.9 21.176C124.9 21.0267 124.868 20.856 124.804 20.664L123.172 16.696H115.652L114.02 20.568C113.934 20.76 113.891 20.9627 113.891 21.176C113.891 21.496 113.988 21.7413 114.18 21.912C114.372 22.0827 114.585 22.168 114.82 22.168H115.332V23H108.867V22.168H109.38C109.742 22.168 110.126 22.04 110.532 21.784C110.937 21.528 111.289 21.1013 111.588 20.504L118.052 6.712C118.265 6.264 118.457 5.83733 118.628 5.432C118.777 5.06933 118.905 4.696 119.012 4.312C119.14 3.928 119.214 3.608 119.236 3.352H119.94L127.684 20.504ZM122.564 15.224L119.46 7.672L116.26 15.224H122.564ZM144.678 3.768C144.977 3.768 145.308 3.74667 145.67 3.704C146.033 3.66133 146.385 3.608 146.726 3.544C147.089 3.48 147.42 3.416 147.718 3.352C148.017 3.26667 148.252 3.192 148.422 3.128V7.32H147.558V6.584C147.558 6.22133 147.43 5.912 147.174 5.656C146.94 5.4 146.63 5.26133 146.246 5.24H140.902V20.76C140.924 21.144 141.084 21.4747 141.382 21.752C141.681 22.0293 142.044 22.168 142.47 22.168H143.11V23H136.166V22.168H136.806C137.233 22.168 137.585 22.0293 137.862 21.752C138.161 21.4747 138.332 21.1333 138.374 20.728V5.24H132.998C132.614 5.26133 132.305 5.4 132.07 5.656C131.836 5.912 131.718 6.22133 131.718 6.584V7.32H130.822V3.128C130.993 3.192 131.228 3.26667 131.526 3.352C131.825 3.416 132.145 3.48 132.486 3.544C132.849 3.608 133.212 3.66133 133.574 3.704C133.937 3.74667 134.268 3.768 134.566 3.768H144.678ZM163.082 23.16H149.994V22.328H150.698C151.125 22.328 151.477 22.1893 151.754 21.912C152.032 21.6347 152.181 21.2933 152.202 20.888V6.104C152.202 5.72 152.053 5.4 151.754 5.144C151.477 4.86667 151.125 4.728 150.698 4.728H149.994V3.896H159.37C159.669 3.896 160 3.87467 160.362 3.832C160.725 3.78933 161.077 3.736 161.418 3.672C161.781 3.608 162.101 3.544 162.378 3.48C162.677 3.39467 162.912 3.32 163.082 3.256V7.448H162.218V6.712C162.218 6.34933 162.09 6.04 161.834 5.784C161.6 5.528 161.29 5.38933 160.906 5.368H154.73V12.728H159.786C160.128 12.7067 160.384 12.6 160.554 12.408C160.725 12.1947 160.81 11.9493 160.81 11.672V11H161.674V15.896H160.81V15.224C160.81 14.9467 160.725 14.712 160.554 14.52C160.405 14.328 160.17 14.2107 159.85 14.168H154.762V21.528H159.338C160.042 21.5067 160.64 21.4107 161.13 21.24C161.642 21.048 162.08 20.8027 162.442 20.504C162.805 20.2053 163.114 19.8427 163.37 19.416C163.648 18.9893 163.893 18.5307 164.106 18.04H165.002L163.082 23.16ZM176.071 5.496C176.583 5.00533 177.255 4.55733 178.087 4.152C178.45 3.98133 178.898 3.84267 179.431 3.736C179.986 3.62933 180.572 3.55467 181.191 3.512H181.671C182.631 3.512 183.463 3.61867 184.167 3.832C184.978 4.06667 185.596 4.35467 186.023 4.696C186.3 4.90933 186.535 5.12267 186.727 5.336C186.94 5.528 187.1 5.74133 187.207 5.976C187.484 6.46667 187.623 6.98933 187.623 7.544C187.623 7.992 187.527 8.45067 187.335 8.92C187.164 9.34667 186.908 9.76267 186.567 10.168C186.418 10.3387 186.247 10.5093 186.055 10.68C185.884 10.8293 185.682 10.9893 185.447 11.16C185.276 11.288 185.031 11.416 184.711 11.544C184.412 11.672 184.05 11.8213 183.623 11.992C184.562 12.2693 185.266 12.536 185.735 12.792C186.247 13.0907 186.684 13.3893 187.047 13.688C187.388 13.9867 187.687 14.3813 187.943 14.872C188.156 15.384 188.263 15.96 188.263 16.6C188.263 17.496 188.007 18.36 187.495 19.192C187.026 19.9813 186.332 20.7067 185.415 21.368C184.519 22.008 183.474 22.4773 182.279 22.776C181.084 23.096 179.794 23.256 178.407 23.256C176.807 23.0853 175.815 22.7013 175.431 22.104L176.039 19.384V19.544H176.871C176.658 19.992 176.551 20.4293 176.551 20.856C176.551 21.6453 176.978 22.04 177.831 22.04H178.151C179.751 21.912 181.127 21.5173 182.279 20.856C182.834 20.5573 183.303 20.248 183.687 19.928C184.092 19.5867 184.412 19.2347 184.647 18.872C185.074 18.2107 185.319 17.432 185.383 16.536C185.383 15.7467 185.223 15.096 184.903 14.584C184.562 13.9867 184.114 13.56 183.559 13.304C182.962 13.0267 182.279 12.8027 181.511 12.632C180.764 12.4827 179.911 12.408 178.951 12.408L179.079 11.864V12.024C179.719 12.024 180.391 11.928 181.095 11.736C181.692 11.5867 182.311 11.3093 182.951 10.904C183.356 10.6267 183.719 10.2533 184.039 9.784C184.359 9.29333 184.583 8.78133 184.711 8.248C184.839 7.69333 184.839 7.16 184.711 6.648C184.604 6.11467 184.327 5.688 183.879 5.368C183.687 5.21867 183.495 5.09067 183.303 4.984C183.132 4.856 182.951 4.74933 182.759 4.664C182.247 4.49333 181.714 4.408 181.159 4.408C179.986 4.408 179.079 4.71733 178.439 5.336C177.778 5.86933 177.447 6.65867 177.447 7.704C177.447 7.78933 177.458 7.87467 177.479 7.96V7.992H176.679V8.12L176.071 5.496ZM207.746 20.504C208.023 21.1013 208.354 21.528 208.738 21.784C209.143 22.04 209.527 22.168 209.89 22.168H210.402V23H203.49V22.168H204.002C204.237 22.168 204.45 22.0827 204.642 21.912C204.855 21.7413 204.962 21.496 204.962 21.176C204.962 21.0267 204.93 20.856 204.866 20.664L203.234 16.696H195.714L194.082 20.568C193.997 20.76 193.954 20.9627 193.954 21.176C193.954 21.496 194.05 21.7413 194.242 21.912C194.434 22.0827 194.647 22.168 194.882 22.168H195.394V23H188.93V22.168H189.442C189.805 22.168 190.189 22.04 190.594 21.784C190.999 21.528 191.351 21.1013 191.65 20.504L198.114 6.712C198.327 6.264 198.519 5.83733 198.69 5.432C198.839 5.06933 198.967 4.696 199.074 4.312C199.202 3.928 199.277 3.608 199.298 3.352H200.002L207.746 20.504ZM202.626 15.224L199.522 7.672L196.322 15.224H202.626ZM225.925 16.44C225.925 16.696 225.914 16.952 225.893 17.208V17.784L225.765 17.912C225.701 18.296 225.594 18.6693 225.445 19.032C225.125 19.8213 224.687 20.5147 224.133 21.112C223.578 21.688 222.917 22.1467 222.149 22.488C221.402 22.808 220.346 22.968 218.981 22.968V22.136C219.983 21.944 220.709 21.6773 221.157 21.336C221.605 20.9733 221.989 20.5253 222.309 19.992C222.629 19.4587 222.885 18.8827 223.077 18.264C223.205 17.8587 223.29 17.4427 223.333 17.016V5.816C223.311 5.432 223.162 5.10133 222.885 4.824C222.607 4.54667 222.277 4.408 221.893 4.408H221.285V3.544H240.293V4.408H239.685C239.301 4.408 238.97 4.54667 238.693 4.824C238.415 5.08 238.266 5.38933 238.245 5.752V20.76C238.266 21.144 238.415 21.4747 238.693 21.752C238.97 22.0293 239.301 22.168 239.685 22.168H240.261L240.357 23H233.669V22.168H234.277C234.661 22.168 234.991 22.0293 235.269 21.752C235.546 21.4747 235.695 21.144 235.717 20.76V6.456C235.695 6.05067 235.546 5.70933 235.269 5.432C234.991 5.13333 234.671 4.984 234.309 4.984H227.269C226.906 4.984 226.586 5.12267 226.309 5.4C226.053 5.67733 225.914 6.008 225.893 6.392L225.925 16.44ZM248.329 3.608V4.44H247.529C247.145 4.44 246.814 4.568 246.537 4.824C246.259 5.08 246.099 5.38933 246.057 5.752V18.232L261.865 3.352H262.633C262.569 3.77867 262.505 4.216 262.441 4.664C262.398 5.048 262.355 5.496 262.313 6.008C262.27 6.49867 262.249 7 262.249 7.512V20.824C262.27 21.208 262.419 21.5387 262.697 21.816C262.995 22.072 263.337 22.2 263.721 22.2H264.521V23.032H258.121V22.2H258.921C259.305 22.2 259.635 22.072 259.913 21.816C260.19 21.5387 260.35 21.208 260.393 20.824V8.472L244.553 23.48H243.849C243.913 23.032 243.966 22.5733 244.009 22.104C244.051 21.6987 244.083 21.2507 244.105 20.76C244.147 20.248 244.169 19.7467 244.169 19.256V5.816C244.126 5.45333 243.966 5.144 243.689 4.888C243.411 4.632 243.07 4.504 242.665 4.504H241.897V3.672L248.329 3.608ZM287.031 14.616L286.679 19.256C285.825 20.5573 284.609 21.5813 283.031 22.328C281.452 23.0747 279.724 23.448 277.847 23.448C276.225 23.448 274.764 23.2133 273.463 22.744C272.161 22.2747 271.052 21.6133 270.135 20.76C269.217 19.8853 268.513 18.8293 268.023 17.592C267.532 16.3547 267.287 14.9573 267.287 13.4C267.287 11.8427 267.532 10.4453 268.023 9.208C268.513 7.94933 269.217 6.89333 270.135 6.04C271.052 5.16533 272.161 4.504 273.463 4.056C274.764 3.58667 276.225 3.352 277.847 3.352C279.169 3.352 280.492 3.53333 281.815 3.896C283.159 4.25867 284.343 4.74933 285.367 5.368L286.135 10.168H285.335C284.844 8.248 283.937 6.88267 282.615 6.072C281.292 5.24 279.692 4.824 277.815 4.824C276.62 4.824 275.543 5.02667 274.583 5.432C273.644 5.816 272.833 6.38133 272.151 7.128C271.489 7.85333 270.977 8.74933 270.615 9.816C270.252 10.8827 270.071 12.0773 270.071 13.4C270.071 14.68 270.252 15.8427 270.615 16.888C270.999 17.9333 271.532 18.8293 272.215 19.576C272.897 20.3013 273.708 20.8773 274.647 21.304C275.607 21.7093 276.673 21.9227 277.847 21.944H277.943C279.052 21.944 280.087 21.8053 281.047 21.528C282.028 21.2293 282.881 20.7813 283.607 20.184C284.353 19.5867 284.951 18.8293 285.399 17.912C285.868 16.9947 286.145 15.896 286.231 14.616H287.031ZM307.321 3.832V4.408H306.649C306.201 4.408 305.807 4.568 305.465 4.888C305.145 5.16533 304.879 5.53867 304.665 6.008L300.281 17.56C300.111 18.008 299.908 18.4987 299.673 19.032C299.439 19.544 299.151 20.056 298.809 20.568C298.489 21.0587 298.105 21.5067 297.657 21.912C297.231 22.296 296.751 22.5733 296.217 22.744C295.919 22.8293 295.385 22.8933 294.617 22.936C293.849 22.9787 292.953 23 291.929 23H290.937V22.072C291.705 22.0507 292.345 22.0187 292.857 21.976C293.369 21.9333 293.817 21.8693 294.201 21.784C294.585 21.6773 294.948 21.528 295.289 21.336C295.652 21.1227 296.057 20.8347 296.505 20.472C296.911 20.0027 297.423 19.0533 298.041 17.624L298.169 17.144C296.036 13.1973 294.383 10.2427 293.209 8.28C292.036 6.296 291.332 5.21867 291.097 5.048C290.543 4.6 290.052 4.376 289.625 4.376H288.953V3.832H295.705V4.344H295.033C294.351 4.344 294.009 4.57867 294.009 5.048C294.009 5.15466 294.02 5.22933 294.041 5.272C294.105 5.54933 294.553 6.456 295.385 7.992C296.217 9.528 297.433 11.7893 299.033 14.776L302.425 6.104C302.383 5.57067 302.212 5.16533 301.913 4.888C301.529 4.568 301.124 4.408 300.697 4.408H300.217V3.832H307.321ZM310.88 23.128C310.475 23.128 310.133 22.9893 309.856 22.712C309.579 22.4347 309.44 22.0933 309.44 21.688C309.44 21.2827 309.579 20.9413 309.856 20.664C310.133 20.3867 310.475 20.248 310.88 20.248C311.285 20.248 311.627 20.3867 311.904 20.664C312.181 20.9413 312.32 21.2827 312.32 21.688C312.32 22.0933 312.181 22.4347 311.904 22.712C311.627 22.9893 311.285 23.128 310.88 23.128ZM15.704 60.968V60.136H16.376C16.8453 60.136 17.24 59.976 17.56 59.656C17.9013 59.3147 18.0827 58.92 18.104 58.472V50.632H5.848V58.44C5.89067 58.9093 6.072 59.3147 6.392 59.656C6.712 59.976 7.11733 60.136 7.608 60.136H8.28V60.968H0.888V60.136H1.56C2.05067 60.136 2.456 59.976 2.776 59.656C3.096 59.3147 3.27733 58.9093 3.32 58.44V41.096C3.27733 40.6267 3.096 40.2213 2.776 39.88C2.456 39.5387 2.05067 39.368 1.56 39.368H0.888V38.536H8.28V39.368H7.608C7.11733 39.368 6.712 39.5387 6.392 39.88C6.072 40.2213 5.89067 40.6267 5.848 41.096V49.16H18.104V41.096C18.0827 40.648 17.9013 40.264 17.56 39.944C17.24 39.6027 16.8453 39.432 16.376 39.432H15.704V38.6H23.064V39.432H22.424C21.9333 39.432 21.528 39.6027 21.208 39.944C20.888 40.2853 20.7067 40.6907 20.664 41.16V58.472C20.7067 58.9413 20.888 59.3467 21.208 59.688C21.528 60.008 21.9333 60.168 22.424 60.168H23.064V61L15.704 60.968ZM43.5273 58.504C43.8046 59.1013 44.1353 59.528 44.5193 59.784C44.9246 60.04 45.3086 60.168 45.6713 60.168H46.1833V61H39.2713V60.168H39.7833C40.0179 60.168 40.2313 60.0827 40.4233 59.912C40.6366 59.7413 40.7433 59.496 40.7433 59.176C40.7433 59.0267 40.7113 58.856 40.6473 58.664L39.0153 54.696H31.4953L29.8633 58.568C29.7779 58.76 29.7352 58.9627 29.7352 59.176C29.7352 59.496 29.8313 59.7413 30.0233 59.912C30.2153 60.0827 30.4286 60.168 30.6633 60.168H31.1753V61H24.7112V60.168H25.2233C25.5859 60.168 25.9699 60.04 26.3753 59.784C26.7806 59.528 27.1326 59.1013 27.4313 58.504L33.8953 44.712C34.1086 44.264 34.3006 43.8373 34.4713 43.432C34.6206 43.0693 34.7486 42.696 34.8553 42.312C34.9833 41.928 35.0579 41.608 35.0793 41.352H35.7833L43.5273 58.504ZM38.4073 53.224L35.3033 45.672L32.1033 53.224H38.4073ZM62.058 41.8C62.634 41.8 63.306 41.8533 64.074 41.96C64.8633 42.0667 65.5993 42.2907 66.282 42.632C66.986 42.9733 67.5727 43.4747 68.042 44.136C68.5327 44.7973 68.778 45.672 68.778 46.76C68.778 47.6133 68.5113 48.3707 67.978 49.032C67.466 49.672 66.8473 50.1733 66.122 50.536C67.4447 50.8773 68.522 51.496 69.354 52.392C70.186 53.288 70.602 54.3333 70.602 55.528C70.602 56.5947 70.3673 57.48 69.898 58.184C69.45 58.8667 68.874 59.4213 68.17 59.848C67.466 60.2533 66.6873 60.5413 65.834 60.712C64.9807 60.8827 64.1593 60.968 63.37 60.968H55.402V60.136H56.042C56.49 60.136 56.8633 59.9973 57.162 59.72C57.4607 59.4427 57.6207 59.112 57.642 58.728V44.04C57.6207 43.6347 57.4607 43.304 57.162 43.048C56.8633 42.792 56.49 42.664 56.042 42.664H55.402V41.8H62.058ZM63.37 59.528C63.9887 59.528 64.5647 59.4533 65.098 59.304C65.6527 59.1333 66.122 58.888 66.506 58.568C66.9113 58.2267 67.2313 57.8107 67.466 57.32C67.7007 56.808 67.818 56.2107 67.818 55.528C67.818 54.5893 67.594 53.832 67.146 53.256C66.7193 52.68 66.154 52.2427 65.45 51.944C64.7673 51.624 63.9887 51.4107 63.114 51.304C62.2607 51.1973 61.2793 51.144 60.17 51.144V59.528H63.37ZM62.41 50.216C63.05 50.1307 63.6367 49.9707 64.17 49.736C64.7247 49.48 65.1727 49.1173 65.514 48.648C65.8767 48.1787 66.058 47.5493 66.058 46.76C66.058 45.544 65.706 44.6587 65.002 44.104C64.298 43.5493 63.306 43.272 62.026 43.272H60.17V50.312C61.0233 50.312 61.77 50.28 62.41 50.216ZM90.1835 58.504C90.4608 59.1013 90.7915 59.528 91.1755 59.784C91.5808 60.04 91.9648 60.168 92.3275 60.168H92.8395V61H85.9275V60.168H86.4395C86.6742 60.168 86.8875 60.0827 87.0795 59.912C87.2928 59.7413 87.3995 59.496 87.3995 59.176C87.3995 59.0267 87.3675 58.856 87.3035 58.664L85.6715 54.696H78.1515L76.5195 58.568C76.4342 58.76 76.3915 58.9627 76.3915 59.176C76.3915 59.496 76.4875 59.7413 76.6795 59.912C76.8715 60.0827 77.0848 60.168 77.3195 60.168H77.8315V61H71.3675V60.168H71.8795C72.2422 60.168 72.6262 60.04 73.0315 59.784C73.4368 59.528 73.7888 59.1013 74.0875 58.504L80.5515 44.712C80.7648 44.264 80.9568 43.8373 81.1275 43.432C81.2768 43.0693 81.4048 42.696 81.5115 42.312C81.6395 41.928 81.7142 41.608 81.7355 41.352H82.4395L90.1835 58.504ZM85.0635 53.224L81.9595 45.672L78.7595 53.224H85.0635ZM114.218 52.616L113.866 57.256C113.013 58.5573 111.797 59.5813 110.218 60.328C108.64 61.0747 106.912 61.448 105.034 61.448C103.413 61.448 101.952 61.2133 100.65 60.744C99.3489 60.2747 98.2396 59.6133 97.3223 58.76C96.4049 57.8853 95.7009 56.8293 95.2103 55.592C94.7196 54.3547 94.4743 52.9573 94.4743 51.4C94.4743 49.8427 94.7196 48.4453 95.2103 47.208C95.7009 45.9493 96.4049 44.8933 97.3223 44.04C98.2396 43.1653 99.3489 42.504 100.65 42.056C101.952 41.5867 103.413 41.352 105.034 41.352C106.357 41.352 107.68 41.5333 109.002 41.896C110.346 42.2587 111.53 42.7493 112.554 43.368L113.322 48.168H112.522C112.032 46.248 111.125 44.8827 109.802 44.072C108.48 43.24 106.88 42.824 105.002 42.824C103.808 42.824 102.73 43.0267 101.77 43.432C100.832 43.816 100.021 44.3813 99.3383 45.128C98.6769 45.8533 98.1649 46.7493 97.8023 47.816C97.4396 48.8827 97.2583 50.0773 97.2583 51.4C97.2583 52.68 97.4396 53.8427 97.8023 54.888C98.1863 55.9333 98.7196 56.8293 99.4023 57.576C100.085 58.3013 100.896 58.8773 101.834 59.304C102.794 59.7093 103.861 59.9227 105.034 59.944H105.13C106.24 59.944 107.274 59.8053 108.234 59.528C109.216 59.2293 110.069 58.7813 110.794 58.184C111.541 57.5867 112.138 56.8293 112.586 55.912C113.056 54.9947 113.333 53.896 113.418 52.616H114.218ZM138.509 61.032V60.2H139.117C139.543 60.2 139.906 60.0613 140.205 59.784C140.503 59.5067 140.663 59.1653 140.685 58.76V52.264H129.741V58.76C129.762 59.1653 129.922 59.5067 130.221 59.784C130.519 60.0613 130.882 60.2 131.309 60.2H131.917V61.032H125.037V60.2H125.645C126.071 60.2 126.434 60.0613 126.733 59.784C127.031 59.5067 127.191 59.1653 127.213 58.76V44.104C127.191 43.72 127.031 43.3893 126.733 43.112C126.434 42.8347 126.071 42.696 125.645 42.696H125.037V41.832H131.917V42.696H131.277C130.871 42.696 130.519 42.8347 130.221 43.112C129.943 43.368 129.794 43.6773 129.773 44.04V50.792H140.717V44.072C140.695 43.688 140.535 43.3573 140.237 43.08C139.938 42.8027 139.575 42.664 139.149 42.664H138.541V41.8H145.421V42.664H144.813C144.407 42.664 144.055 42.8027 143.757 43.08C143.479 43.3573 143.319 43.6773 143.277 44.04V58.728C143.298 59.1333 143.458 59.4747 143.757 59.752C144.055 60.0293 144.418 60.168 144.845 60.168H145.453V61L138.509 61.032ZM165.84 58.504C166.117 59.1013 166.448 59.528 166.832 59.784C167.237 60.04 167.621 60.168 167.984 60.168H168.496V61H161.584V60.168H162.096C162.33 60.168 162.544 60.0827 162.736 59.912C162.949 59.7413 163.056 59.496 163.056 59.176C163.056 59.0267 163.024 58.856 162.96 58.664L161.328 54.696H153.808L152.176 58.568C152.09 58.76 152.048 58.9627 152.048 59.176C152.048 59.496 152.144 59.7413 152.336 59.912C152.528 60.0827 152.741 60.168 152.976 60.168H153.488V61H147.024V60.168H147.536C147.898 60.168 148.282 60.04 148.688 59.784C149.093 59.528 149.445 59.1013 149.744 58.504L156.208 44.712C156.421 44.264 156.613 43.8373 156.784 43.432C156.933 43.0693 157.061 42.696 157.168 42.312C157.296 41.928 157.37 41.608 157.392 41.352H158.096L165.84 58.504ZM160.72 53.224L157.616 45.672L154.416 53.224H160.72ZM189.331 61H182.643V60.168H183.251C183.635 60.168 183.965 60.0293 184.243 59.752C184.52 59.4747 184.669 59.144 184.691 58.76V44.712C184.669 44.3067 184.52 43.9653 184.243 43.688C183.965 43.3893 183.645 43.24 183.283 43.24H176.243C175.88 43.24 175.56 43.3787 175.283 43.656C175.027 43.9333 174.888 44.264 174.867 44.648V58.76C174.888 59.144 175.037 59.4747 175.315 59.752C175.592 60.0293 175.923 60.168 176.307 60.168H176.915V61H170.259V60.168H170.867C171.251 60.168 171.581 60.0293 171.859 59.752C172.136 59.4747 172.285 59.144 172.307 58.76V44.072C172.285 43.688 172.136 43.3573 171.859 43.08C171.581 42.8027 171.251 42.664 170.867 42.664H170.259V41.8H189.267V42.664H188.659C188.275 42.664 187.944 42.8027 187.667 43.08C187.389 43.336 187.24 43.6453 187.219 44.008V58.76C187.24 59.144 187.389 59.4747 187.667 59.752C187.944 60.0293 188.275 60.168 188.659 60.168H189.235L189.331 61ZM209.559 58.504C209.836 59.1013 210.167 59.528 210.551 59.784C210.956 60.04 211.34 60.168 211.703 60.168H212.215V61H205.303V60.168H205.815C206.049 60.168 206.263 60.0827 206.455 59.912C206.668 59.7413 206.775 59.496 206.775 59.176C206.775 59.0267 206.743 58.856 206.679 58.664L205.047 54.696H197.527L195.895 58.568C195.809 58.76 195.766 58.9627 195.766 59.176C195.766 59.496 195.863 59.7413 196.055 59.912C196.247 60.0827 196.46 60.168 196.695 60.168H197.207V61H190.742V60.168H191.255C191.617 60.168 192.001 60.04 192.407 59.784C192.812 59.528 193.164 59.1013 193.463 58.504L199.927 44.712C200.14 44.264 200.332 43.8373 200.503 43.432C200.652 43.0693 200.78 42.696 200.887 42.312C201.015 41.928 201.089 41.608 201.111 41.352H201.815L209.559 58.504ZM204.439 53.224L201.335 45.672L198.135 53.224H204.439ZM219.737 54.44C219.737 54.696 219.727 54.952 219.705 55.208V55.784L219.577 55.912C219.513 56.296 219.407 56.6693 219.257 57.032C218.937 57.8213 218.5 58.5147 217.945 59.112C217.391 59.688 216.729 60.1467 215.961 60.488C215.215 60.808 214.159 60.968 212.793 60.968V60.136C213.796 59.944 214.521 59.6773 214.969 59.336C215.417 58.9733 215.801 58.5253 216.121 57.992C216.441 57.4587 216.697 56.8827 216.889 56.264C217.017 55.8587 217.103 55.4427 217.145 55.016V43.816C217.124 43.432 216.975 43.1013 216.697 42.824C216.42 42.5467 216.089 42.408 215.705 42.408H215.097V41.544H234.105V42.408H233.497C233.113 42.408 232.783 42.5467 232.505 42.824C232.228 43.08 232.079 43.3893 232.057 43.752V58.76C232.079 59.144 232.228 59.4747 232.505 59.752C232.783 60.0293 233.113 60.168 233.497 60.168H234.073L234.169 61H227.481V60.168H228.089C228.473 60.168 228.804 60.0293 229.081 59.752C229.359 59.4747 229.508 59.144 229.529 58.76V44.456C229.508 44.0507 229.359 43.7093 229.081 43.432C228.804 43.1333 228.484 42.984 228.121 42.984H221.081C220.719 42.984 220.399 43.1227 220.121 43.4C219.865 43.6773 219.727 44.008 219.705 44.392L219.737 54.44ZM242.141 41.608V42.44H241.341C240.957 42.44 240.627 42.568 240.349 42.824C240.072 43.08 239.912 43.3893 239.869 43.752V56.232L255.677 41.352H256.445C256.381 41.7787 256.317 42.216 256.253 42.664C256.211 43.048 256.168 43.496 256.125 44.008C256.083 44.4987 256.061 45 256.061 45.512V58.824C256.083 59.208 256.232 59.5387 256.509 59.816C256.808 60.072 257.149 60.2 257.533 60.2H258.333V61.032H251.933V60.2H252.733C253.117 60.2 253.448 60.072 253.725 59.816C254.003 59.5387 254.163 59.208 254.205 58.824V46.472L238.365 61.48H237.661C237.725 61.032 237.779 60.5733 237.821 60.104C237.864 59.6987 237.896 59.2507 237.917 58.76C237.96 58.248 237.981 57.7467 237.981 57.256V43.816C237.939 43.4533 237.779 43.144 237.501 42.888C237.224 42.632 236.883 42.504 236.477 42.504H235.709V41.672L242.141 41.608ZM291.179 59.368L292.651 65.096H291.787C291.553 64.4987 291.286 63.944 290.987 63.432C290.689 62.9413 290.411 62.5147 290.155 62.152C289.921 61.7893 289.515 61.5013 288.939 61.288C288.47 61.1173 287.926 61.0213 287.307 61H271.883C271.478 61.0427 271.073 61.1387 270.667 61.288C270.091 61.5013 269.675 61.7893 269.419 62.152C269.185 62.5147 268.918 62.9413 268.619 63.432C268.321 63.944 268.054 64.4987 267.819 65.096H266.955L268.427 59.336H272.011C272.203 59.1013 272.31 58.824 272.331 58.504L275.787 43.624C275.766 43.24 275.617 42.9093 275.339 42.632C275.062 42.3547 274.731 42.216 274.347 42.216H273.739V41.352L289.291 41.416V42.28H288.683C288.299 42.28 287.969 42.4187 287.691 42.696C287.414 42.952 287.265 43.2613 287.243 43.624V58.504C287.265 58.824 287.371 59.112 287.563 59.368H291.179ZM284.715 58.504V44.328C284.694 43.9227 284.545 43.5813 284.267 43.304C283.99 43.0053 283.67 42.856 283.307 42.856H279.211C278.849 42.856 278.529 42.9947 278.251 43.272C277.995 43.5493 277.857 43.88 277.835 44.264L274.379 58.504C274.401 58.824 274.497 59.1013 274.667 59.336L284.395 59.368C284.587 59.112 284.694 58.824 284.715 58.504ZM306.395 61.16H293.307V60.328H294.011C294.437 60.328 294.789 60.1893 295.067 59.912C295.344 59.6347 295.493 59.2933 295.515 58.888V44.104C295.515 43.72 295.365 43.4 295.067 43.144C294.789 42.8667 294.437 42.728 294.011 42.728H293.307V41.896H302.683C302.981 41.896 303.312 41.8747 303.675 41.832C304.037 41.7893 304.389 41.736 304.731 41.672C305.093 41.608 305.413 41.544 305.691 41.48C305.989 41.3947 306.224 41.32 306.395 41.256V45.448H305.531V44.712C305.531 44.3493 305.403 44.04 305.147 43.784C304.912 43.528 304.603 43.3893 304.219 43.368H298.043V50.728H303.099C303.44 50.7067 303.696 50.6 303.867 50.408C304.037 50.1947 304.123 49.9493 304.123 49.672V49H304.987V53.896H304.123V53.224C304.123 52.9467 304.037 52.712 303.867 52.52C303.717 52.328 303.483 52.2107 303.163 52.168H298.075V59.528H302.651C303.355 59.5067 303.952 59.4107 304.443 59.24C304.955 59.048 305.392 58.8027 305.755 58.504C306.117 58.2053 306.427 57.8427 306.683 57.416C306.96 56.9893 307.205 56.5307 307.419 56.04H308.315L306.395 61.16ZM334.616 58.728V58.696C334.701 59.1867 334.925 59.56 335.288 59.816C335.65 60.072 336.056 60.2 336.504 60.2H337.24V61.032H330.232V60.232H330.968C331.202 60.232 331.405 60.1573 331.576 60.008C331.746 59.8587 331.832 59.6667 331.832 59.432V59.304C331.554 57.2347 331.288 55.2507 331.032 53.352C330.797 51.432 330.552 49.4267 330.296 47.336L324.824 58.152C324.824 58.1733 324.77 58.2907 324.664 58.504C324.578 58.7173 324.472 58.984 324.344 59.304C324.216 59.624 324.088 59.976 323.96 60.36C323.832 60.744 323.736 61.1173 323.672 61.48H323L315.8 47.624L314.488 59.272H314.52C314.498 59.2933 314.488 59.3147 314.488 59.336C314.488 59.5707 314.573 59.7733 314.744 59.944C314.936 60.1147 315.149 60.2 315.384 60.2H316.12V61H309.848V60.168H310.552C311.042 60.168 311.458 60.04 311.799 59.784C312.162 59.5067 312.376 59.1227 312.44 58.632L314.872 41.352H315.576L323.64 56.872L331.416 41.352H332.12L334.616 58.728ZM349.621 41.352C351.115 41.352 352.512 41.5973 353.813 42.088C355.115 42.5787 356.256 43.272 357.237 44.168C358.219 45.0427 358.987 46.0987 359.541 47.336C360.117 48.552 360.405 49.9067 360.405 51.4C360.405 52.8933 360.117 54.2587 359.541 55.496C358.987 56.712 358.219 57.768 357.237 58.664C356.256 59.5387 355.115 60.2213 353.813 60.712C352.512 61.2027 351.115 61.448 349.621 61.448C348.128 61.448 346.72 61.2027 345.397 60.712C344.096 60.2213 342.955 59.5387 341.973 58.664C340.992 57.768 340.213 56.712 339.637 55.496C339.083 54.2587 338.805 52.8933 338.805 51.4C338.805 49.9067 339.083 48.552 339.637 47.336C340.213 46.0987 340.992 45.0427 341.973 44.168C342.955 43.272 344.096 42.5787 345.397 42.088C346.72 41.5973 348.128 41.352 349.621 41.352ZM349.621 59.976C350.731 59.976 351.765 59.7733 352.725 59.368C353.685 58.9413 354.517 58.3547 355.221 57.608C355.947 56.8613 356.512 55.9653 356.917 54.92C357.323 53.8533 357.525 52.68 357.525 51.4C357.525 50.12 357.323 48.9573 356.917 47.912C356.512 46.8453 355.947 45.9387 355.221 45.192C354.517 44.4453 353.685 43.8693 352.725 43.464C351.765 43.0373 350.731 42.824 349.621 42.824C348.512 42.824 347.467 43.0373 346.485 43.464C345.525 43.8693 344.683 44.4453 343.957 45.192C343.253 45.9387 342.699 46.8453 342.293 47.912C341.888 48.9573 341.685 50.12 341.685 51.4C341.685 52.68 341.888 53.8533 342.293 54.92C342.699 55.9653 343.253 56.8613 343.957 57.608C344.683 58.3547 345.525 58.9413 346.485 59.368C347.467 59.7733 348.512 59.976 349.621 59.976ZM376.603 61.032V60.2H377.211C377.637 60.2 378 60.0613 378.299 59.784C378.597 59.5067 378.757 59.1653 378.779 58.76V52.264H367.835V58.76C367.856 59.1653 368.016 59.5067 368.315 59.784C368.613 60.0613 368.976 60.2 369.403 60.2H370.01V61.032H363.131V60.2H363.739C364.165 60.2 364.528 60.0613 364.827 59.784C365.125 59.5067 365.285 59.1653 365.307 58.76V44.104C365.285 43.72 365.125 43.3893 364.827 43.112C364.528 42.8347 364.165 42.696 363.739 42.696H363.131V41.832H370.01V42.696H369.371C368.965 42.696 368.613 42.8347 368.315 43.112C368.037 43.368 367.888 43.6773 367.867 44.04V50.792H378.811V44.072C378.789 43.688 378.629 43.3573 378.331 43.08C378.032 42.8027 377.669 42.664 377.243 42.664H376.635V41.8H383.515V42.664H382.907C382.501 42.664 382.149 42.8027 381.851 43.08C381.573 43.3573 381.413 43.6773 381.371 44.04V58.728C381.392 59.1333 381.552 59.4747 381.851 59.752C382.149 60.0293 382.512 60.168 382.939 60.168H383.547V61L376.603 61.032ZM386.718 61.032V60.168H387.422C387.848 60.168 388.211 60.04 388.51 59.784C388.808 59.5067 388.968 59.176 388.99 58.792V44.072C388.968 43.6667 388.819 43.3253 388.542 43.048C388.264 42.7707 387.912 42.632 387.486 42.632H386.782V41.8H393.79V42.632H393.086C392.659 42.632 392.296 42.7707 391.998 43.048C391.72 43.3253 391.571 43.6667 391.55 44.072V59.528H394.302C395.752 59.528 396.883 59.1867 397.694 58.504C398.526 57.8213 398.942 56.8933 398.942 55.72C398.942 55.464 398.92 55.1867 398.878 54.888C398.856 54.5893 398.814 54.3333 398.75 54.12C398.515 53.4587 398.206 52.9253 397.822 52.52C397.459 52.0933 397.064 51.7733 396.638 51.56C396.211 51.3253 395.774 51.176 395.326 51.112C394.899 51.0267 394.494 50.984 394.11 50.984C393.875 50.984 393.64 50.9947 393.406 51.016C393.192 51.0373 393 51.0693 392.83 51.112C392.616 51.1547 392.414 51.1973 392.222 51.24V50.76C392.84 50.4613 393.448 50.216 394.046 50.024C394.643 49.832 395.219 49.736 395.774 49.736C396.584 49.736 397.342 49.8747 398.046 50.152C398.771 50.408 399.4 50.76 399.934 51.208C400.488 51.6347 400.926 52.2107 401.246 52.936C401.566 53.6613 401.726 54.4827 401.726 55.4C401.726 56.2533 401.544 57.0213 401.182 57.704C400.84 58.3867 400.339 58.9733 399.678 59.464C399.038 59.9333 398.259 60.3067 397.342 60.584C396.446 60.84 395.454 60.9787 394.366 61L386.718 61.032ZM401.47 61.032V60.2H402.142C402.632 60.2 403.048 60.0613 403.39 59.784C403.752 59.5067 403.955 59.176 403.998 58.792V44.104C403.955 43.72 403.752 43.3893 403.39 43.112C403.048 42.8347 402.632 42.696 402.142 42.696H401.47V41.832H409.054V42.696H408.382C407.912 42.696 407.496 42.8347 407.134 43.112C406.792 43.3893 406.6 43.7093 406.558 44.072V58.792C406.579 59.176 406.76 59.5067 407.102 59.784C407.464 60.0613 407.891 60.2 408.382 60.2H409.054V61.032H401.47ZM412.911 61.128C412.506 61.128 412.165 60.9893 411.887 60.712C411.61 60.4347 411.471 60.0933 411.471 59.688C411.471 59.2827 411.61 58.9413 411.887 58.664C412.165 58.3867 412.506 58.248 412.911 58.248C413.317 58.248 413.658 58.3867 413.935 58.664C414.213 58.9413 414.351 59.2827 414.351 59.688C414.351 60.0933 414.213 60.4347 413.935 60.712C413.658 60.9893 413.317 61.128 412.911 61.128Z" fill="#EC8C2F"/>
</svg>
