<svg width="616" height="118" viewBox="0 0 616 118" fill="none" xmlns="http://www.w3.org/2000/svg">
<rect width="616" height="118" fill="url(#paint0_linear_35_9)"/>
<path d="M128.408 79.936V78.272H129.752C130.691 78.272 131.48 77.952 132.12 77.312C132.803 76.6293 133.165 75.84 133.208 74.944V59.264H108.696V74.88C108.781 75.8187 109.144 76.6293 109.784 77.312C110.424 77.952 111.235 78.272 112.216 78.272H113.56V79.936H98.776V78.272H100.12C101.101 78.272 101.912 77.952 102.552 77.312C103.192 76.6293 103.555 75.8187 103.64 74.88V40.192C103.555 39.2533 103.192 38.4427 102.552 37.76C101.912 37.0773 101.101 36.736 100.12 36.736H98.776V35.072H113.56V36.736H112.216C111.235 36.736 110.424 37.0773 109.784 37.76C109.144 38.4427 108.781 39.2533 108.696 40.192V56.32H133.208V40.192C133.165 39.296 132.803 38.528 132.12 37.888C131.48 37.2053 130.691 36.864 129.752 36.864H128.408V35.2H143.128V36.864H141.848C140.867 36.864 140.056 37.2053 139.416 37.888C138.776 38.5707 138.413 39.3813 138.328 40.32V74.944C138.413 75.8827 138.776 76.6933 139.416 77.376C140.056 78.016 140.867 78.336 141.848 78.336H143.128V80L128.408 79.936ZM184.055 75.008C184.609 76.2027 185.271 77.056 186.039 77.568C186.849 78.08 187.617 78.336 188.343 78.336H189.367V80H175.543V78.336H176.567C177.036 78.336 177.463 78.1653 177.847 77.824C178.273 77.4827 178.487 76.992 178.487 76.352C178.487 76.0533 178.423 75.712 178.295 75.328L175.031 67.392H159.991L156.727 75.136C156.556 75.52 156.47 75.9253 156.47 76.352C156.47 76.992 156.663 77.4827 157.047 77.824C157.431 78.1653 157.857 78.336 158.327 78.336H159.351V80H146.422V78.336H147.447C148.172 78.336 148.94 78.08 149.751 77.568C150.561 77.056 151.265 76.2027 151.863 75.008L164.791 47.424C165.217 46.528 165.601 45.6747 165.943 44.864C166.241 44.1387 166.497 43.392 166.711 42.624C166.967 41.856 167.116 41.216 167.159 40.704H168.567L184.055 75.008ZM173.815 64.448L167.607 49.344L161.207 64.448H173.815ZM195.388 46.4V46.272C195.26 45.376 194.897 44.6507 194.3 44.096C193.617 43.4133 192.807 43.072 191.868 43.072H190.524V41.536H205.308V43.072H203.964C203.111 43.072 202.3 43.4133 201.532 44.096C201.02 44.5653 200.657 45.2053 200.444 46.016V46.208C200.359 47.4453 200.295 48.448 200.252 49.216C200.209 49.9413 200.188 50.7307 200.188 51.584V52.032C200.231 54.5493 200.935 56.512 202.3 57.92C203.708 59.4133 205.607 60.16 207.996 60.16H219.644V46.4C219.601 45.504 219.239 44.7573 218.556 44.16C217.873 43.4773 217.063 43.136 216.124 43.136H214.78V41.6H229.564V43.136H228.22C227.281 43.136 226.471 43.4773 225.788 44.16C225.191 44.7147 224.828 45.4613 224.7 46.4V75.328C224.828 76.352 225.191 77.0987 225.788 77.568C226.471 78.208 227.281 78.528 228.22 78.528H229.564V80H214.78V78.528H216.124C217.02 78.528 217.831 78.208 218.556 77.568C219.196 77.056 219.559 76.3093 219.644 75.328V61.952H207.932C203.58 61.952 200.273 61.0347 198.012 59.2C196.177 57.664 195.26 54.4427 195.26 49.536C195.26 48.9387 195.26 48.448 195.26 48.064C195.26 47.68 195.303 47.1253 195.388 46.4ZM268.492 75.008C269.047 76.2027 269.708 77.056 270.476 77.568C271.287 78.08 272.055 78.336 272.78 78.336H273.804V80H259.98V78.336H261.004C261.473 78.336 261.9 78.1653 262.284 77.824C262.711 77.4827 262.924 76.992 262.924 76.352C262.924 76.0533 262.86 75.712 262.732 75.328L259.468 67.392H244.428L241.164 75.136C240.993 75.52 240.908 75.9253 240.908 76.352C240.908 76.992 241.1 77.4827 241.484 77.824C241.868 78.1653 242.295 78.336 242.764 78.336H243.788V80H230.86V78.336H231.884C232.609 78.336 233.377 78.08 234.188 77.568C234.999 77.056 235.703 76.2027 236.3 75.008L249.228 47.424C249.655 46.528 250.039 45.6747 250.38 44.864C250.679 44.1387 250.935 43.392 251.148 42.624C251.404 41.856 251.553 41.216 251.596 40.704H253.004L268.492 75.008ZM258.252 64.448L252.044 49.344L245.644 64.448H258.252ZM302.482 41.536C303.079 41.536 303.74 41.4933 304.466 41.408C305.191 41.3227 305.895 41.216 306.578 41.088C307.303 40.96 307.964 40.832 308.562 40.704C309.159 40.5333 309.628 40.384 309.97 40.256V48.64H308.242V47.168C308.242 46.4427 307.986 45.824 307.474 45.312C307.004 44.8 306.386 44.5227 305.618 44.48H294.93V75.52C294.972 76.288 295.292 76.9493 295.89 77.504C296.487 78.0587 297.212 78.336 298.066 78.336H299.346V80H285.458V78.336H286.738C287.591 78.336 288.295 78.0587 288.85 77.504C289.447 76.9493 289.788 76.2667 289.874 75.456V44.48H279.122C278.354 44.5227 277.735 44.8 277.266 45.312C276.796 45.824 276.562 46.4427 276.562 47.168V48.64H274.77V40.256C275.111 40.384 275.58 40.5333 276.178 40.704C276.775 40.832 277.415 40.96 278.098 41.088C278.823 41.216 279.548 41.3227 280.274 41.408C280.999 41.4933 281.66 41.536 282.258 41.536H302.482ZM313.498 80.064V78.336H314.906C315.759 78.336 316.484 78.08 317.082 77.568C317.679 77.0133 317.999 76.352 318.042 75.584V46.144C317.999 45.3333 317.7 44.6507 317.146 44.096C316.591 43.5413 315.887 43.264 315.034 43.264H313.626V41.6H327.642V43.264H326.234C325.38 43.264 324.655 43.5413 324.058 44.096C323.503 44.6507 323.204 45.3333 323.162 46.144V77.056H328.666C331.567 77.056 333.828 76.3733 335.45 75.008C337.114 73.6427 337.946 71.7867 337.946 69.44C337.946 68.928 337.903 68.3733 337.818 67.776C337.775 67.1787 337.69 66.6667 337.562 66.24C337.092 64.9173 336.474 63.8507 335.706 63.04C334.98 62.1867 334.191 61.5467 333.338 61.12C332.484 60.6507 331.61 60.352 330.714 60.224C329.86 60.0533 329.05 59.968 328.282 59.968C327.812 59.968 327.343 59.9893 326.874 60.032C326.447 60.0747 326.063 60.1387 325.722 60.224C325.295 60.3093 324.89 60.3947 324.506 60.48V59.52C325.743 58.9227 326.959 58.432 328.154 58.048C329.348 57.664 330.5 57.472 331.61 57.472C333.231 57.472 334.746 57.7493 336.154 58.304C337.604 58.816 338.863 59.52 339.93 60.416C341.039 61.2693 341.914 62.4213 342.554 63.872C343.194 65.3227 343.514 66.9653 343.514 68.8C343.514 70.5067 343.151 72.0427 342.426 73.408C341.743 74.7733 340.74 75.9467 339.418 76.928C338.138 77.8667 336.58 78.6133 334.746 79.168C332.954 79.68 330.97 79.9573 328.794 80L313.498 80.064ZM377.033 41.216V42.88H375.433C374.665 42.88 374.003 43.136 373.449 43.648C372.894 44.16 372.574 44.7787 372.489 45.504V70.464L404.105 40.704H405.641C405.513 41.5573 405.385 42.432 405.257 43.328C405.171 44.096 405.086 44.992 405.001 46.016C404.915 46.9973 404.873 48 404.873 49.024V75.648C404.915 76.416 405.214 77.0773 405.769 77.632C406.366 78.144 407.049 78.4 407.817 78.4H409.417V80.064H396.617V78.4H398.217C398.985 78.4 399.646 78.144 400.201 77.632C400.755 77.0773 401.075 76.416 401.161 75.648V50.944L369.481 80.96H368.073C368.201 80.064 368.307 79.1467 368.393 78.208C368.478 77.3973 368.542 76.5013 368.585 75.52C368.67 74.496 368.713 73.4933 368.713 72.512V45.632C368.627 44.9067 368.307 44.288 367.753 43.776C367.198 43.264 366.515 43.008 365.705 43.008H364.169V41.344L377.033 41.216ZM441.125 51.776C440.698 50.752 440.207 49.8347 439.653 49.024C439.141 48.1707 438.501 47.4453 437.733 46.848C437.007 46.208 436.133 45.7173 435.109 45.376C434.127 44.992 432.954 44.7787 431.589 44.736H422.437V75.584C422.479 76.352 422.799 77.0133 423.397 77.568C424.037 78.1227 424.783 78.4 425.637 78.4H426.917V80.128H412.965V78.4H414.245C415.098 78.4 415.823 78.1227 416.421 77.568C417.061 77.0133 417.402 76.352 417.445 75.584V46.208C417.402 45.3973 417.103 44.7147 416.549 44.16C415.994 43.6053 415.29 43.328 414.437 43.328H413.029V41.664H439.205L442.981 51.52L441.125 51.776ZM462.481 41.664C464.657 41.7067 466.641 42.0053 468.433 42.56C470.268 43.072 471.825 43.8187 473.105 44.8C474.428 45.7387 475.43 46.8907 476.113 48.256C476.838 49.6213 477.201 51.1573 477.201 52.864C477.201 54.6987 476.881 56.3413 476.241 57.792C475.601 59.2427 474.726 60.416 473.617 61.312C472.55 62.1653 471.292 62.8693 469.841 63.424C468.433 63.936 466.918 64.192 465.297 64.192C464.188 64.192 463.036 64 461.841 63.616C460.646 63.232 459.43 62.7413 458.193 62.144V61.184C458.577 61.2693 458.982 61.3547 459.409 61.44C459.75 61.5253 460.134 61.5893 460.561 61.632C461.03 61.6747 461.5 61.696 461.969 61.696C462.737 61.696 463.548 61.632 464.401 61.504C465.297 61.3333 466.172 61.0347 467.025 60.608C467.878 60.1387 468.668 59.4987 469.393 58.688C470.161 57.8347 470.78 56.7467 471.249 55.424C471.377 54.9973 471.462 54.4853 471.505 53.888C471.59 53.2907 471.633 52.736 471.633 52.224C471.633 49.8773 470.801 48.0213 469.137 46.656C467.516 45.2907 465.254 44.608 462.353 44.608H456.849V75.52C456.892 76.3307 457.19 77.0133 457.745 77.568C458.342 78.1227 459.068 78.4 459.921 78.4H461.329V80.064H447.313V78.4H448.721C449.574 78.4 450.278 78.1227 450.833 77.568C451.388 77.0133 451.686 76.3307 451.729 75.52V46.08C451.686 45.312 451.366 44.672 450.769 44.16C450.172 43.6053 449.446 43.328 448.593 43.328H447.185V41.6L462.481 41.664ZM518.08 41.664V42.816H516.736C515.84 42.816 515.051 43.136 514.368 43.776C513.728 44.3307 513.195 45.0773 512.768 46.016L504 69.12C503.659 70.016 503.253 70.9973 502.784 72.064C502.315 73.088 501.739 74.112 501.056 75.136C500.416 76.1173 499.648 77.0133 498.752 77.824C497.899 78.592 496.939 79.1467 495.872 79.488C495.275 79.6587 494.208 79.7867 492.672 79.872C491.136 79.9573 489.344 80 487.296 80H485.312V78.144C486.848 78.1013 488.128 78.0373 489.152 77.952C490.176 77.8667 491.072 77.7387 491.84 77.568C492.608 77.3547 493.333 77.056 494.016 76.672C494.741 76.2453 495.552 75.6693 496.448 74.944C497.259 74.0053 498.283 72.1067 499.52 69.248L499.776 68.288C495.509 60.3947 492.203 54.4853 489.856 50.56C487.509 46.592 486.101 44.4373 485.632 44.096C484.523 43.2 483.541 42.752 482.688 42.752H481.344V41.664H494.848V42.688H493.504C492.139 42.688 491.456 43.1573 491.456 44.096C491.456 44.3093 491.477 44.4587 491.52 44.544C491.648 45.0987 492.544 46.912 494.208 49.984C495.872 53.056 498.304 57.5787 501.504 63.552L508.288 46.208C508.203 45.1413 507.861 44.3307 507.264 43.776C506.496 43.136 505.685 42.816 504.832 42.816H503.872V41.664H518.08Z" fill="white"/>
<defs>
<linearGradient id="paint0_linear_35_9" x1="0" y1="118" x2="616" y2="118" gradientUnits="userSpaceOnUse">
<stop offset="0.375" stop-color="#EC8C2F"/>
<stop offset="0.8125" stop-color="#458DB5"/>
</linearGradient>
</defs>
</svg>
