<svg width="500" height="414" viewBox="0 0 500 414" fill="none" xmlns="http://www.w3.org/2000/svg">
<ellipse cx="424.86" cy="151.586" rx="149.222" ry="141.161" fill="#FA0707"/>
<path d="M166.328 6.68974L298.838 68.6197L283.483 93.5611L175.133 35.9039L166.328 6.68974Z" fill="#BD0000"/>
<path d="M164.361 8.06603L171.832 36.5735L89.6447 208.918L71.1634 200.171L164.361 8.06603Z" fill="#BD0000"/>
<path d="M113.063 54.7482L274.656 129.763L272.296 161.023L123.524 89.3016L113.063 54.7482Z" fill="#FA0707"/>
<path d="M122.494 157.548L281.929 200.344L295.101 231.997L138.723 189.797L122.494 157.548Z" fill="#BD0000"/>
<path d="M110.726 56.3764L119.602 90.0939L21.9574 293.937L0.000381729 283.591L110.726 56.3764Z" fill="#FA0707"/>
<path d="M120.472 159.551L134.996 191.249L73.7365 408.811L50.3311 402.382L120.472 159.551Z" fill="#BD0000"/>
</svg>
