<svg width="188" height="188" viewBox="0 0 188 188" fill="none" xmlns="http://www.w3.org/2000/svg">
<rect x="0.132812" width="187.865" height="187.865" fill="#FBF0AC"/>
<path fill-rule="evenodd" clip-rule="evenodd" d="M153.085 19H166V32.5476V46.0833V59.631V73.1786V86.7262H153.085H140.183H127.268H114.366H101.451V73.1786H114.366V59.631H127.268V46.0833H140.183V32.5476H153.085V19ZM62.7197 154.452V168H75.6342V154.452V140.905V127.357H88.5368H101.451H114.366V140.905V154.452V168H127.268V154.452V140.905L127.268 127.357H140.183V113.821H127.268H114.366H101.451H88.5368H75.6342H62.7197H49.8171V127.357H62.7197V140.905V154.452ZM75.6342 73.1786H88.5368V86.7262H75.6342H62.7197H49.8171H36.9026H24V73.1786V59.631V46.0833V32.5476V19H36.9026V32.5476H49.8171V46.0833H62.7197V59.631H75.6342V73.1786Z" fill="#6E6D71"/>
</svg>
