<svg width="188" height="189" viewBox="0 0 188 189" fill="none" xmlns="http://www.w3.org/2000/svg">
<rect y="0.354004" width="187.865" height="187.865" fill="#FBF0AC"/>
<path fill-rule="evenodd" clip-rule="evenodd" d="M118.394 16H134V32.5029V49.0058V65.5087V81.9971V98.5H118.394H102.788H87.1971H71.5913H56V81.9971V65.5087V49.0058V32.5029V16H71.5913H87.1971H102.788H118.394ZM71.5913 49.0058V65.5087H87.1971V49.0058H71.5913ZM102.788 49.0058V65.5087H118.394V49.0058H102.788ZM134 115.003H118.394V131.506V148.009V164.512V181H134V164.512V148.009V131.506V115.003ZM102.788 148.009V131.506V115.003H87.1971V131.506V148.009H102.788ZM71.5913 164.512V181H56V164.512V148.009V131.506V115.003H71.5913V131.506V148.009V164.512Z" fill="#6E6D71"/>
</svg>
