<svg width="188" height="189" viewBox="0 0 188 189" fill="none" xmlns="http://www.w3.org/2000/svg">
<rect x="0.132812" y="0.70752" width="187.865" height="187.865" fill="#FBF0AC"/>
<path fill-rule="evenodd" clip-rule="evenodd" d="M126.602 23H114.898H103.204V35.2518H91.5H79.7957V47.5036H68.1022V59.7554H56.3978V72.0072H44.7043V84.2482H33V96.5V108.752H44.7043H56.3978H68.1022H79.7957H91.5H103.204L114.898 108.752V121.004H103.204V133.255H91.5V145.507H79.7957V157.759H68.1022V170H79.7957H91.5V157.759H103.204H114.898V145.507H126.602V133.255H138.296V121.004H150V108.752V96.5H138.296V84.2482H126.602H114.898H103.204H91.5H79.7957V72.0072H91.5V59.7554H103.204V47.5036H114.898V35.2518H126.602V23Z" fill="#6E6D71"/>
</svg>
