<svg width="212" height="297" viewBox="0 0 212 297" fill="none" xmlns="http://www.w3.org/2000/svg">
<path fill-rule="evenodd" clip-rule="evenodd" d="M117.761 0H141.326V24.7536V49.5073V74.2391H164.891V98.9927H188.435V123.746H164.891V148.5H188.435V173.254H164.891V198.007H141.326V222.739V247.493V272.246V297H117.761V272.246V247.493V222.739V198.007H94.2174V222.739V247.493V272.246V297H70.6521V272.246V247.493V222.739V198.007H47.1087V173.254H23.5435V148.5H47.1087V123.746H23.5435V98.9927H47.1087V74.2391H70.6521V49.5073V24.7536V0H94.2174H117.761ZM23.5435 123.746H0V148.5H23.5435V123.746ZM188.435 148.5H212V123.746H188.435V148.5Z" fill="#993626"/>
</svg>
