<?xml version="1.0" encoding="utf-8"?>
<!-- Generator: Adobe Illustrator 25.3.1, SVG Export Plug-In . SVG Version: 6.00 Build 0)  -->
<svg version="1.1" id="Layer_1" xmlns="http://www.w3.org/2000/svg" xmlns:xlink="http://www.w3.org/1999/xlink" x="0px" y="0px"
	 viewBox="0 0 399 589" style="enable-background:new 0 0 399 589;" xml:space="preserve">
<style type="text/css">
	.st0{fill:#EFEFEF;}
	.st1{fill-rule:evenodd;clip-rule:evenodd;fill:#993626;}
</style>
<path class="st0" d="M239.4,56.1h-26.6v28h26.6V56.1z"/>
<path class="st0" d="M186.2,56.1h-26.6v28h26.6V56.1z"/>
<g>
	<g>
		<path class="st1" d="M372.4,224.4v-28.1h-26.6v-28h-26.6v-28H266V0H133v140.2H79.8v28H53.2v28H26.6v28H0v28h26.6v28h26.6v28h26.6
			v28h26.6v28.1H133V589h53.2V364.6h26.6V589H266V364.6h26.6v-28.1h26.6v-28h26.6v-28h26.6v-28H399v-28L372.4,224.4z M239.4,84.1
			h-26.6v-28h26.6V84.1z M186.2,56.1v28h-26.6v-28H186.2z M53.2,252.4v-28h26.6v-28.1h26.6v84.1H79.8v-28H53.2z M319.2,252.4v28
			h-26.6v-84.1h26.6v28.1h26.6v28H319.2z"/>
	</g>
</g>
</svg>
