<svg width="185" height="33" viewBox="0 0 185 33" fill="none" xmlns="http://www.w3.org/2000/svg">
<path d="M26.9878 5.89298H5.35883V32H0.119512V0.65366H26.9878V5.89298ZM33.6349 32.0448V0.65366H64.9812V21.5661H38.8742V32.0448H33.6349ZM59.7867 16.3268V5.89298H38.8742V16.3268H59.7867ZM71.6109 0.65366H102.957V5.89298H76.8502V11.0875H102.733V16.3268H76.8502V26.7607H102.957V32H71.6109V0.65366ZM116.124 13.1922L111.377 0.65366H116.751L121.005 11.0875H134.842L139.007 0.65366H144.38L139.723 13.1922L146.306 32H140.932L135.335 16.3268H120.736L114.915 32H109.541L116.124 13.1922ZM158.181 0.65366V24.2082L179.049 0.65366H184.288V32H179.049V8.66937L158.181 32H152.942V0.65366H158.181Z" fill="#FBF0AC"/>
</svg>
