<svg width="645" height="209" viewBox="0 0 645 209" fill="none" xmlns="http://www.w3.org/2000/svg">
<rect width="633" height="194" fill="#FBF0AC"/>
<path d="M164.4 65.048V48.2H63.6V149H164.4V132.152H80.448V65.048H164.4ZM271.975 48.2H171.031V65.048H213.079V149H229.927V65.048H271.975V48.2ZM292.878 98.6L302.67 65.048H344.142V98.6H292.878ZM290.574 48.2L260.046 149H277.614L287.406 115.448H344.142V149H360.99V48.2H290.574ZM368.194 48.2V149.144H385.042V115.448H468.994V48.2H368.194ZM385.042 65.048H452.29V98.6H385.042V65.048ZM576.569 48.2H475.625V65.048H517.673V149H534.521V65.048H576.569V48.2Z" fill="#993626"/>
</svg>
